<svg width="358" height="142" viewBox="0 0 358 142" fill="none" xmlns="http://www.w3.org/2000/svg">
<g filter="url(#filter0_d_182_1294)">
<rect x="8.39502" y="-245.825" width="342.208" height="378.141" rx="38.9559" fill="#006A00"/>
</g>
<path d="M118.521 87.307L113.814 78.7636H112.492V87.307H106.979V64.675H116.232C118.016 64.675 119.531 64.9866 120.777 65.6099C122.046 66.2332 122.991 67.0929 123.614 68.189C124.238 69.2637 124.549 70.4673 124.549 71.7999C124.549 73.3044 124.12 74.6477 123.26 75.8298C122.422 77.0119 121.175 77.8501 119.52 78.3445L124.743 87.307H118.521ZM112.492 74.8626H115.909C116.919 74.8626 117.672 74.6154 118.166 74.1211C118.682 73.6268 118.94 72.9282 118.94 72.0255C118.94 71.1658 118.682 70.4888 118.166 69.9945C117.672 69.5001 116.919 69.2529 115.909 69.2529H112.492V74.8626ZM133.523 69.0918V73.6697H140.906V77.9253H133.523V82.8902H141.873V87.307H128.01V64.675H141.873V69.0918H133.523ZM160.476 71.8321C160.067 71.0798 159.476 70.5103 158.703 70.1234C157.95 69.715 157.058 69.5109 156.027 69.5109C154.243 69.5109 152.813 70.1019 151.739 71.284C150.664 72.4446 150.127 74.0029 150.127 75.9587C150.127 78.0436 150.686 79.677 151.803 80.8591C152.942 82.0197 154.501 82.6001 156.478 82.6001C157.832 82.6001 158.971 82.2562 159.895 81.5684C160.841 80.8806 161.529 79.8919 161.959 78.6024H154.963V74.5402H166.956V79.6663C166.547 81.0418 165.849 82.3206 164.86 83.5028C163.893 84.6849 162.657 85.6413 161.153 86.3721C159.648 87.1028 157.95 87.4682 156.059 87.4682C153.824 87.4682 151.825 86.9846 150.062 86.0174C148.321 85.0288 146.957 83.664 145.968 81.923C145.001 80.1821 144.517 78.194 144.517 75.9587C144.517 73.7235 145.001 71.7354 145.968 69.9945C146.957 68.232 148.321 66.8672 150.062 65.9001C151.803 64.9114 153.791 64.417 156.027 64.417C158.735 64.417 161.013 65.0726 162.861 66.3836C164.731 67.6947 165.967 69.5109 166.569 71.8321H160.476ZM175.522 64.675V87.307H170.009V64.675H175.522ZM187.706 87.5327C186.051 87.5327 184.568 87.264 183.257 86.7267C181.946 86.1894 180.893 85.3941 180.098 84.341C179.324 83.2878 178.916 82.0197 178.873 80.5367H184.74C184.826 81.375 185.116 82.0197 185.611 82.4711C186.105 82.901 186.75 83.1159 187.545 83.1159C188.362 83.1159 189.007 82.9332 189.48 82.5678C189.952 82.1809 190.189 81.6544 190.189 80.9881C190.189 80.4293 189.995 79.9672 189.609 79.6018C189.243 79.2364 188.781 78.9355 188.222 78.6991C187.685 78.4627 186.911 78.194 185.901 77.8931C184.439 77.4418 183.247 76.9904 182.322 76.5391C181.398 76.0877 180.603 75.4214 179.937 74.5402C179.27 73.659 178.937 72.5091 178.937 71.0906C178.937 68.9843 179.7 67.3401 181.226 66.158C182.752 64.9544 184.74 64.3526 187.191 64.3526C189.684 64.3526 191.693 64.9544 193.219 66.158C194.745 67.3401 195.562 68.995 195.67 71.1228H189.705C189.662 70.3921 189.394 69.8225 188.899 69.4141C188.405 68.9843 187.771 68.7694 186.997 68.7694C186.331 68.7694 185.794 68.952 185.385 69.3174C184.977 69.6613 184.773 70.1664 184.773 70.8327C184.773 71.5634 185.116 72.133 185.804 72.5414C186.492 72.9497 187.567 73.3903 189.028 73.8632C190.49 74.3575 191.672 74.8304 192.575 75.2817C193.499 75.7331 194.294 76.3886 194.96 77.2483C195.627 78.108 195.96 79.2149 195.96 80.569C195.96 81.8586 195.627 83.0299 194.96 84.0831C194.315 85.1362 193.37 85.9744 192.123 86.5977C190.877 87.221 189.404 87.5327 187.706 87.5327ZM215.633 64.675V69.0918H209.637V87.307H204.124V69.0918H198.127V64.675H215.633ZM223.913 69.0918V73.6697H231.296V77.9253H223.913V82.8902H232.263V87.307H218.4V64.675H232.263V69.0918H223.913ZM247.384 87.307L242.677 78.7636H241.355V87.307H235.842V64.675H245.095C246.879 64.675 248.394 64.9866 249.641 65.6099C250.909 66.2332 251.854 67.0929 252.478 68.189C253.101 69.2637 253.413 70.4673 253.413 71.7999C253.413 73.3044 252.983 74.6477 252.123 75.8298C251.285 77.0119 250.038 77.8501 248.383 78.3445L253.606 87.307H247.384ZM241.355 74.8626H244.772C245.783 74.8626 246.535 74.6154 247.029 74.1211C247.545 73.6268 247.803 72.9282 247.803 72.0255C247.803 71.1658 247.545 70.4888 247.029 69.9945C246.535 69.5001 245.783 69.2529 244.772 69.2529H241.355V74.8626Z" fill="#97C93C"/>
<path d="M90.3369 102.763H267.821" stroke="#97C93C" stroke-width="1.00748"/>
<path d="M59.6413 32.1807C59.6413 33.5706 59.2329 34.6094 58.4162 35.2972C57.5994 35.9849 56.3958 36.3288 54.8054 36.3288H51.4095V43.1421H50.9796V28.0111H54.8054C56.4675 28.0111 57.6854 28.3765 58.4592 29.1072C59.2472 29.838 59.6413 30.8625 59.6413 32.1807ZM54.8054 35.8775C56.3529 35.8775 57.4705 35.5551 58.1583 34.9103C58.8604 34.2655 59.2114 33.3556 59.2114 32.1807C59.2114 30.9484 58.8675 30.0171 58.1798 29.3866C57.492 28.7562 56.3672 28.4409 54.8054 28.4409H51.4095V35.8775H54.8054ZM62.7646 27.2373V43.1421H62.3348V27.2373H62.7646ZM71.4785 42.9057C72.7824 42.9057 73.8785 42.5761 74.7669 41.917C75.6553 41.2579 76.1926 40.3552 76.3789 39.2089H76.8087C76.6081 40.4268 76.035 41.4155 75.0893 42.1749C74.1579 42.92 72.9543 43.2925 71.4785 43.2925C70.4039 43.2925 69.4438 43.0561 68.5984 42.5833C67.7531 42.1104 67.0868 41.4227 66.5996 40.52C66.1268 39.6173 65.8903 38.5569 65.8903 37.339C65.8903 36.1211 66.1268 35.0608 66.5996 34.158C67.0868 33.2553 67.7531 32.5676 68.5984 32.0947C69.4438 31.6219 70.4039 31.3855 71.4785 31.3855C72.6105 31.3855 73.5776 31.629 74.38 32.1162C75.1824 32.5891 75.7842 33.2052 76.1854 33.9646C76.601 34.724 76.8087 35.5264 76.8087 36.3718C76.8087 36.8876 76.8016 37.2745 76.7873 37.5324H66.3202C66.3345 38.7217 66.5781 39.7176 67.051 40.52C67.5381 41.3224 68.1686 41.9242 68.9423 42.3254C69.7161 42.7122 70.5615 42.9057 71.4785 42.9057ZM71.4785 31.7723C70.5615 31.7723 69.7161 31.9729 68.9423 32.3741C68.1686 32.761 67.5381 33.3556 67.051 34.158C66.5781 34.9605 66.3345 35.9563 66.3202 37.1456H76.4219C76.4935 35.9563 76.3001 34.9605 75.8416 34.158C75.3974 33.3556 74.7812 32.761 73.9932 32.3741C73.2194 31.9729 72.3812 31.7723 71.4785 31.7723ZM79.3864 37.339C79.3864 36.1211 79.6228 35.0679 80.0956 34.1795C80.5685 33.2768 81.2348 32.5891 82.0945 32.1162C82.9542 31.629 83.9357 31.3855 85.039 31.3855C86.3716 31.3855 87.4964 31.7365 88.4134 32.4386C89.3448 33.1264 89.9681 34.0076 90.2833 35.0822V31.5359H90.6917V43.1421H90.2833V39.5958C89.9681 40.6704 89.3448 41.5588 88.4134 42.2609C87.4964 42.9487 86.3716 43.2925 85.039 43.2925C83.9357 43.2925 82.9542 43.0561 82.0945 42.5833C81.2348 42.0961 80.5685 41.4083 80.0956 40.52C79.6228 39.6173 79.3864 38.5569 79.3864 37.339ZM90.2833 37.339C90.2833 36.2357 90.054 35.2685 89.5955 34.4375C89.1513 33.5921 88.528 32.9401 87.7256 32.4816C86.9376 32.0088 86.042 31.7723 85.039 31.7723C83.9787 31.7723 83.0545 31.9944 82.2664 32.4386C81.4927 32.8828 80.8909 33.5276 80.461 34.373C80.0312 35.204 79.8162 36.1927 79.8162 37.339C79.8162 38.4853 80.0312 39.4811 80.461 40.3265C80.8909 41.1576 81.4927 41.7952 82.2664 42.2394C83.0545 42.6836 83.9787 42.9057 85.039 42.9057C86.042 42.9057 86.9376 42.6764 87.7256 42.2179C88.528 41.745 89.1513 41.0931 89.5955 40.262C90.054 39.4166 90.2833 38.4423 90.2833 37.339ZM98.083 43.2925C96.8078 43.2925 95.7761 43.0346 94.9881 42.5188C94.2143 42.003 93.763 41.2221 93.634 40.1761H94.0639C94.1498 41.0358 94.5295 41.7092 95.203 42.1964C95.8908 42.6692 96.8579 42.9057 98.1045 42.9057C98.735 42.9057 99.2866 42.7839 99.7595 42.5403C100.247 42.2967 100.619 41.9743 100.877 41.5731C101.135 41.1576 101.264 40.7134 101.264 40.2405C101.264 39.7247 101.114 39.3092 100.813 38.994C100.526 38.6644 100.161 38.4136 99.7165 38.2417C99.2866 38.0698 98.692 37.8835 97.9326 37.6829C97.0872 37.468 96.3994 37.253 95.8693 37.0381C95.3534 36.8232 94.9093 36.4936 94.5367 36.0494C94.1785 35.6052 93.9994 35.0178 93.9994 34.287C93.9994 33.7712 94.157 33.2912 94.4722 32.847C94.7875 32.4028 95.2173 32.0517 95.7618 31.7938C96.3206 31.5216 96.9439 31.3855 97.6317 31.3855C98.8066 31.3855 99.7523 31.6792 100.469 32.2667C101.185 32.8541 101.572 33.6709 101.629 34.7169H101.2C101.157 33.8571 100.827 33.155 100.211 32.6106C99.609 32.0517 98.7493 31.7723 97.6317 31.7723C97.0299 31.7723 96.4854 31.887 95.9982 32.1162C95.5111 32.3455 95.1242 32.6535 94.8376 33.0404C94.5654 33.4273 94.4292 33.8428 94.4292 34.287C94.4292 34.9175 94.594 35.4261 94.9236 35.813C95.2531 36.1999 95.6543 36.4864 96.1272 36.6727C96.6144 36.859 97.2591 37.0596 98.0616 37.2745C98.8783 37.5038 99.5159 37.7115 99.9744 37.8978C100.447 38.0841 100.848 38.3707 101.178 38.7575C101.508 39.1301 101.672 39.6244 101.672 40.2405C101.672 40.8137 101.515 41.3367 101.2 41.8095C100.884 42.268 100.454 42.6334 99.9099 42.9057C99.3655 43.1636 98.7565 43.2925 98.083 43.2925ZM109.784 42.9057C111.088 42.9057 112.184 42.5761 113.072 41.917C113.961 41.2579 114.498 40.3552 114.684 39.2089H115.114C114.913 40.4268 114.34 41.4155 113.395 42.1749C112.463 42.92 111.26 43.2925 109.784 43.2925C108.709 43.2925 107.749 43.0561 106.904 42.5833C106.058 42.1104 105.392 41.4227 104.905 40.52C104.432 39.6173 104.196 38.5569 104.196 37.339C104.196 36.1211 104.432 35.0608 104.905 34.158C105.392 33.2553 106.058 32.5676 106.904 32.0947C107.749 31.6219 108.709 31.3855 109.784 31.3855C110.916 31.3855 111.883 31.629 112.685 32.1162C113.488 32.5891 114.09 33.2052 114.491 33.9646C114.906 34.724 115.114 35.5264 115.114 36.3718C115.114 36.8876 115.107 37.2745 115.093 37.5324H104.625C104.64 38.7217 104.883 39.7176 105.356 40.52C105.843 41.3224 106.474 41.9242 107.248 42.3254C108.021 42.7122 108.867 42.9057 109.784 42.9057ZM109.784 31.7723C108.867 31.7723 108.021 31.9729 107.248 32.3741C106.474 32.761 105.843 33.3556 105.356 34.158C104.883 34.9605 104.64 35.9563 104.625 37.1456H114.727C114.799 35.9563 114.605 34.9605 114.147 34.158C113.703 33.3556 113.087 32.761 112.298 32.3741C111.525 31.9729 110.686 31.7723 109.784 31.7723ZM128.718 27.6672C127.472 27.6672 126.605 27.9108 126.118 28.3979C125.631 28.8708 125.387 29.6445 125.387 30.7192V31.5359H128.718V31.9873H125.387V43.1421H124.957V31.9873H123.066V31.5359H124.957V30.7192C124.957 29.5442 125.244 28.6702 125.817 28.097C126.39 27.5239 127.357 27.2373 128.718 27.2373V27.6672ZM131.52 28.5699C131.363 28.5699 131.226 28.5197 131.112 28.4194C131.011 28.3048 130.961 28.1615 130.961 27.9896C130.961 27.8176 131.011 27.6815 131.112 27.5812C131.226 27.4666 131.363 27.4093 131.52 27.4093C131.678 27.4093 131.807 27.4666 131.907 27.5812C132.022 27.6815 132.079 27.8176 132.079 27.9896C132.079 28.1615 132.022 28.3048 131.907 28.4194C131.807 28.5197 131.678 28.5699 131.52 28.5699ZM131.735 31.5359V43.1421H131.305V31.5359H131.735ZM135.828 27.2373V43.1421H135.398V27.2373H135.828ZM139.921 27.2373V43.1421H139.491V27.2373H139.921ZM159.361 31.5359V43.1421H158.931V39.9826C158.673 41.0859 158.128 41.9242 157.297 42.4973C156.48 43.0704 155.506 43.357 154.374 43.357C153.013 43.357 151.895 42.9343 151.021 42.0889C150.147 41.2435 149.71 39.9683 149.71 38.2632V31.5359H150.119V38.3062C150.119 39.825 150.498 40.9856 151.258 41.788C152.017 42.5761 153.056 42.9701 154.374 42.9701C155.75 42.9701 156.853 42.526 157.684 41.6376C158.515 40.7349 158.931 39.4095 158.931 37.6614V31.5359H159.361ZM163.428 35.0822C163.743 34.0076 164.36 33.1264 165.277 32.4386C166.208 31.7365 167.34 31.3855 168.673 31.3855C169.776 31.3855 170.757 31.629 171.617 32.1162C172.477 32.5891 173.143 33.2768 173.616 34.1795C174.089 35.0679 174.325 36.1211 174.325 37.339C174.325 38.5569 174.089 39.6173 173.616 40.52C173.143 41.4083 172.477 42.0961 171.617 42.5833C170.757 43.0561 169.776 43.2925 168.673 43.2925C167.34 43.2925 166.208 42.9487 165.277 42.2609C164.36 41.5588 163.743 40.6704 163.428 39.5958V48.6013H163.02V31.5359H163.428V35.0822ZM173.895 37.339C173.895 36.1927 173.68 35.204 173.251 34.373C172.821 33.5276 172.212 32.8828 171.424 32.4386C170.65 31.9944 169.733 31.7723 168.673 31.7723C167.67 31.7723 166.767 32.0088 165.964 32.4816C165.176 32.9401 164.553 33.5921 164.095 34.4375C163.65 35.2685 163.428 36.2357 163.428 37.339C163.428 38.4423 163.65 39.4166 164.095 40.262C164.553 41.0931 165.176 41.745 165.964 42.2179C166.767 42.6764 167.67 42.9057 168.673 42.9057C169.733 42.9057 170.65 42.6836 171.424 42.2394C172.212 41.7952 172.821 41.1576 173.251 40.3265C173.68 39.4811 173.895 38.4853 173.895 37.339ZM184.597 31.9658V40.0901C184.597 40.7922 184.676 41.3295 184.834 41.7021C184.991 42.0746 185.242 42.3397 185.586 42.4973C185.93 42.6406 186.41 42.7122 187.026 42.7122H188.251V43.1421H186.983C185.98 43.1421 185.257 42.9128 184.812 42.4543C184.382 41.9958 184.168 41.2077 184.168 40.0901V31.9658H182.276V31.5359H184.168V28.5699H184.597V31.5359H188.251V31.9658H184.597ZM195.922 31.278C197.283 31.278 198.401 31.7007 199.275 32.5461C200.149 33.3915 200.586 34.6667 200.586 36.3718V43.1421H200.177V36.3288C200.177 34.81 199.798 33.6565 199.038 32.8685C198.279 32.0661 197.24 31.6649 195.922 31.6649C194.546 31.6649 193.443 32.1162 192.612 33.0189C191.781 33.9073 191.365 35.2255 191.365 36.9736V43.1421H190.935V27.2373H191.365V34.5879C191.638 33.5133 192.182 32.6965 192.999 32.1377C193.816 31.5646 194.79 31.278 195.922 31.278ZM209.189 42.9057C210.492 42.9057 211.589 42.5761 212.477 41.917C213.365 41.2579 213.903 40.3552 214.089 39.2089H214.519C214.318 40.4268 213.745 41.4155 212.799 42.1749C211.868 42.92 210.664 43.2925 209.189 43.2925C208.114 43.2925 207.154 43.0561 206.308 42.5833C205.463 42.1104 204.797 41.4227 204.31 40.52C203.837 39.6173 203.6 38.5569 203.6 37.339C203.6 36.1211 203.837 35.0608 204.31 34.158C204.797 33.2553 205.463 32.5676 206.308 32.0947C207.154 31.6219 208.114 31.3855 209.189 31.3855C210.32 31.3855 211.288 31.629 212.09 32.1162C212.892 32.5891 213.494 33.2052 213.895 33.9646C214.311 34.724 214.519 35.5264 214.519 36.3718C214.519 36.8876 214.512 37.2745 214.497 37.5324H204.03C204.045 38.7217 204.288 39.7176 204.761 40.52C205.248 41.3224 205.879 41.9242 206.652 42.3254C207.426 42.7122 208.271 42.9057 209.189 42.9057ZM209.189 31.7723C208.271 31.7723 207.426 31.9729 206.652 32.3741C205.879 32.761 205.248 33.3556 204.761 34.158C204.288 34.9605 204.045 35.9563 204.03 37.1456H214.132C214.204 35.9563 214.01 34.9605 213.552 34.158C213.107 33.3556 212.491 32.761 211.703 32.3741C210.929 31.9729 210.091 31.7723 209.189 31.7723ZM228.123 27.6672C226.877 27.6672 226.01 27.9108 225.522 28.3979C225.035 28.8708 224.792 29.6445 224.792 30.7192V31.5359H228.123V31.9873H224.792V43.1421H224.362V31.9873H222.47V31.5359H224.362V30.7192C224.362 29.5442 224.648 28.6702 225.222 28.097C225.795 27.5239 226.762 27.2373 228.123 27.2373V27.6672ZM235.847 43.2925C234.772 43.2925 233.805 43.0561 232.945 42.5833C232.086 42.0961 231.405 41.4083 230.903 40.52C230.416 39.6173 230.173 38.5569 230.173 37.339C230.173 36.1211 230.416 35.0679 230.903 34.1795C231.405 33.2768 232.086 32.5891 232.945 32.1162C233.805 31.629 234.772 31.3855 235.847 31.3855C236.921 31.3855 237.889 31.629 238.748 32.1162C239.608 32.5891 240.282 33.2768 240.769 34.1795C241.256 35.0679 241.499 36.1211 241.499 37.339C241.499 38.5569 241.256 39.6173 240.769 40.52C240.282 41.4083 239.608 42.0961 238.748 42.5833C237.889 43.0561 236.921 43.2925 235.847 43.2925ZM235.847 42.9057C236.778 42.9057 237.638 42.7051 238.426 42.3039C239.214 41.8883 239.852 41.265 240.339 40.434C240.826 39.6029 241.07 38.5713 241.07 37.339C241.07 36.1067 240.826 35.0751 240.339 34.244C239.852 33.413 239.214 32.7968 238.426 32.3956C237.638 31.9801 236.778 31.7723 235.847 31.7723C234.915 31.7723 234.049 31.9801 233.246 32.3956C232.458 32.7968 231.82 33.4201 231.333 34.2655C230.846 35.0966 230.603 36.1211 230.603 37.339C230.603 38.5569 230.846 39.5886 231.333 40.434C231.82 41.265 232.458 41.8883 233.246 42.3039C234.049 42.7051 234.915 42.9057 235.847 42.9057ZM245.056 34.3515C245.514 32.3025 247.04 31.278 249.634 31.278V31.7508H249.44C248.222 31.7508 247.183 32.1091 246.324 32.8255C245.478 33.5276 245.056 34.6667 245.056 36.2429V43.1421H244.626V31.5359H245.056V34.3515ZM265.472 31.278C266.761 31.278 267.821 31.7007 268.653 32.5461C269.484 33.3915 269.899 34.6667 269.899 36.3718V43.1421H269.491V36.3288C269.491 34.81 269.133 33.6565 268.416 32.8685C267.7 32.0661 266.718 31.6649 265.472 31.6649C264.168 31.6649 263.115 32.1305 262.312 33.0619C261.51 33.9789 261.109 35.3187 261.109 37.0811V43.1421H260.7V36.3288C260.7 34.81 260.342 33.6565 259.626 32.8685C258.909 32.0661 257.928 31.6649 256.681 31.6649C255.363 31.6649 254.302 32.1305 253.5 33.0619C252.712 33.9789 252.318 35.3187 252.318 37.0811V43.1421H251.888V31.5359H252.318V34.6094C252.605 33.4918 253.135 32.6607 253.908 32.1162C254.696 31.5574 255.621 31.278 256.681 31.278C257.77 31.278 258.701 31.5861 259.475 32.2022C260.263 32.804 260.765 33.721 260.98 34.9533C261.237 33.721 261.768 32.804 262.57 32.2022C263.387 31.5861 264.354 31.278 265.472 31.278ZM277.184 43.2925C275.908 43.2925 274.877 43.0346 274.089 42.5188C273.315 42.003 272.864 41.2221 272.735 40.1761H273.165C273.251 41.0358 273.63 41.7092 274.304 42.1964C274.991 42.6692 275.959 42.9057 277.205 42.9057C277.836 42.9057 278.387 42.7839 278.86 42.5403C279.347 42.2967 279.72 41.9743 279.978 41.5731C280.236 41.1576 280.365 40.7134 280.365 40.2405C280.365 39.7247 280.214 39.3092 279.913 38.994C279.627 38.6644 279.261 38.4136 278.817 38.2417C278.387 38.0698 277.793 37.8835 277.033 37.6829C276.188 37.468 275.5 37.253 274.97 37.0381C274.454 36.8232 274.01 36.4936 273.637 36.0494C273.279 35.6052 273.1 35.0178 273.1 34.287C273.1 33.7712 273.258 33.2912 273.573 32.847C273.888 32.4028 274.318 32.0517 274.862 31.7938C275.421 31.5216 276.045 31.3855 276.732 31.3855C277.907 31.3855 278.853 31.6792 279.569 32.2667C280.286 32.8541 280.673 33.6709 280.73 34.7169H280.3C280.257 33.8571 279.928 33.155 279.312 32.6106C278.71 32.0517 277.85 31.7723 276.732 31.7723C276.131 31.7723 275.586 31.887 275.099 32.1162C274.612 32.3455 274.225 32.6535 273.938 33.0404C273.666 33.4273 273.53 33.8428 273.53 34.287C273.53 34.9175 273.695 35.4261 274.024 35.813C274.354 36.1999 274.755 36.4864 275.228 36.6727C275.715 36.859 276.36 37.0596 277.162 37.2745C277.979 37.5038 278.617 37.7115 279.075 37.8978C279.548 38.0841 279.949 38.3707 280.279 38.7575C280.608 39.1301 280.773 39.6244 280.773 40.2405C280.773 40.8137 280.615 41.3367 280.3 41.8095C279.985 42.268 279.555 42.6334 279.011 42.9057C278.466 43.1636 277.857 43.2925 277.184 43.2925ZM290.992 31.9658V40.0901C290.992 40.7922 291.07 41.3295 291.228 41.7021C291.386 42.0746 291.636 42.3397 291.98 42.4973C292.324 42.6406 292.804 42.7122 293.42 42.7122H294.645V43.1421H293.377C292.374 43.1421 291.651 42.9128 291.207 42.4543C290.777 41.9958 290.562 41.2077 290.562 40.0901V31.9658H288.67V31.5359H290.562V28.5699H290.992V31.5359H294.645V31.9658H290.992ZM302.466 43.2925C301.392 43.2925 300.425 43.0561 299.565 42.5833C298.705 42.0961 298.025 41.4083 297.523 40.52C297.036 39.6173 296.792 38.5569 296.792 37.339C296.792 36.1211 297.036 35.0679 297.523 34.1795C298.025 33.2768 298.705 32.5891 299.565 32.1162C300.425 31.629 301.392 31.3855 302.466 31.3855C303.541 31.3855 304.508 31.629 305.368 32.1162C306.228 32.5891 306.901 33.2768 307.388 34.1795C307.876 35.0679 308.119 36.1211 308.119 37.339C308.119 38.5569 307.876 39.6173 307.388 40.52C306.901 41.4083 306.228 42.0961 305.368 42.5833C304.508 43.0561 303.541 43.2925 302.466 43.2925ZM302.466 42.9057C303.398 42.9057 304.258 42.7051 305.046 42.3039C305.834 41.8883 306.471 41.265 306.958 40.434C307.446 39.6029 307.689 38.5713 307.689 37.339C307.689 36.1067 307.446 35.0751 306.958 34.244C306.471 33.413 305.834 32.7968 305.046 32.3956C304.258 31.9801 303.398 31.7723 302.466 31.7723C301.535 31.7723 300.668 31.9801 299.866 32.3956C299.078 32.7968 298.44 33.4201 297.953 34.2655C297.466 35.0966 297.222 36.1211 297.222 37.339C297.222 38.5569 297.466 39.5886 297.953 40.434C298.44 41.265 299.078 41.8883 299.866 42.3039C300.668 42.7051 301.535 42.9057 302.466 42.9057Z" fill="white"/>
<defs>
<filter id="filter0_d_182_1294" x="0.469504" y="-252.743" width="358.73" height="394.664" filterUnits="userSpaceOnUse" color-interpolation-filters="sRGB">
<feFlood flood-opacity="0" result="BackgroundImageFix"/>
<feColorMatrix in="SourceAlpha" type="matrix" values="0 0 0 0 0 0 0 0 0 0 0 0 0 0 0 0 0 0 127 0" result="hardAlpha"/>
<feMorphology radius="2.68662" operator="dilate" in="SourceAlpha" result="effect1_dropShadow_182_1294"/>
<feOffset dx="0.335827" dy="1.34331"/>
<feGaussianBlur stdDeviation="2.78736"/>
<feComposite in2="hardAlpha" operator="out"/>
<feColorMatrix type="matrix" values="0 0 0 0 0 0 0 0 0 0 0 0 0 0 0 0 0 0 0.2 0"/>
<feBlend mode="normal" in2="BackgroundImageFix" result="effect1_dropShadow_182_1294"/>
<feBlend mode="normal" in="SourceGraphic" in2="effect1_dropShadow_182_1294" result="shape"/>
</filter>
</defs>
</svg>
